<?xml version="1.0" encoding="UTF-8" standalone="no"?>
<!DOCTYPE svg PUBLIC "-//W3C//DTD SVG 1.1//EN"
 "http://www.w3.org/Graphics/SVG/1.1/DTD/svg11.dtd">
<!-- Generated by graphviz version 2.40.1 (20161225.0304)
 -->
<!-- Title: %3 Pages: 1 -->
<svg width="415pt" height="298pt"
 viewBox="0.00 0.00 415.24 298.40" xmlns="http://www.w3.org/2000/svg" xmlns:xlink="http://www.w3.org/1999/xlink">
<g id="graph0" class="graph" transform="scale(1 1) rotate(0) translate(4 294.4018)">
<title>%3</title>
<polygon fill="#ffffff" stroke="transparent" points="-4,4 -4,-294.4018 411.2357,-294.4018 411.2357,4 -4,4"/>
<!-- angle_to_enemy -->
<g id="node1" class="node">
<title>angle_to_enemy</title>
<polygon fill="#d3d3d3" stroke="#000000" points="75.7215,-281.2241 -.2415,-281.2241 -.2415,-264.2241 75.7215,-264.2241 75.7215,-281.2241"/>
<text text-anchor="middle" x="37.74" y="-270.0241" font-family="Times,serif" font-size="9.00" fill="#000000">angle_to_enemy</text>
</g>
<!-- attack -->
<g id="node6" class="node">
<title>attack</title>
<ellipse fill="#add8e6" stroke="#000000" cx="64.74" cy="-192.5406" rx="26.5116" ry="26.5116"/>
<text text-anchor="middle" x="64.74" y="-189.8406" font-family="Times,serif" font-size="9.00" fill="#000000">attack</text>
</g>
<!-- angle_to_enemy&#45;&gt;attack -->
<g id="edge5" class="edge">
<title>angle_to_enemy&#45;&gt;attack</title>
<path fill="none" stroke="#00ff00" stroke-width=".1143" d="M40.6295,-264.1431C43.607,-255.3004 48.445,-240.9328 53.0086,-227.38"/>
<polygon fill="#00ff00" stroke="#00ff00" stroke-width=".1143" points="56.3783,-228.3402 56.2526,-217.7462 49.7443,-226.1063 56.3783,-228.3402"/>
</g>
<!-- distance_to_enemy -->
<g id="node2" class="node">
<title>distance_to_enemy</title>
<polygon fill="#d3d3d3" stroke="#000000" points="241.7189,-281.2241 155.7611,-281.2241 155.7611,-264.2241 241.7189,-264.2241 241.7189,-281.2241"/>
<text text-anchor="middle" x="198.74" y="-270.0241" font-family="Times,serif" font-size="9.00" fill="#000000">distance_to_enemy</text>
</g>
<!-- move -->
<g id="node3" class="node">
<title>move</title>
<ellipse fill="#add8e6" stroke="#000000" cx="236.74" cy="-104.5825" rx="25.4049" ry="25.4049"/>
<text text-anchor="middle" x="236.74" y="-101.8825" font-family="Times,serif" font-size="9.00" fill="#000000">move</text>
</g>
<!-- distance_to_enemy&#45;&gt;move -->
<g id="edge10" class="edge">
<title>distance_to_enemy&#45;&gt;move</title>
<path fill="none" stroke="#ff0000" stroke-width=".2816" d="M190.9794,-264.0068C182.6228,-253.9821 169.8412,-236.6333 164.74,-219.0464 158.1765,-196.4184 154.8725,-187.4297 164.74,-166.0348 173.1976,-147.6968 190.1253,-132.8044 205.4429,-122.275"/>
<polygon fill="#ff0000" stroke="#ff0000" stroke-width=".2816" points="207.7202,-124.9694 214.1994,-116.5866 203.9068,-119.0992 207.7202,-124.9694"/>
</g>
<!-- strafe -->
<g id="node4" class="node">
<title>strafe</title>
<ellipse fill="#add8e6" stroke="#000000" cx="198.74" cy="-192.5406" rx="25.3925" ry="25.3925"/>
<text text-anchor="middle" x="198.74" y="-189.8406" font-family="Times,serif" font-size="9.00" fill="#000000">strafe</text>
</g>
<!-- distance_to_enemy&#45;&gt;strafe -->
<g id="edge1" class="edge">
<title>distance_to_enemy&#45;&gt;strafe</title>
<path fill="none" stroke="#00ff00" stroke-width=".7984" d="M198.74,-264.1431C198.74,-255.5358 198.74,-241.6941 198.74,-228.4643"/>
<polygon fill="#00ff00" stroke="#00ff00" stroke-width=".7984" points="202.2401,-228.0971 198.74,-218.0972 195.2401,-228.0972 202.2401,-228.0971"/>
</g>
<!-- 7 -->
<g id="node9" class="node">
<title>7</title>
<ellipse fill="#ffffff" stroke="#000000" cx="256.74" cy="-192.5406" rx="14.4914" ry="14.4914"/>
<text text-anchor="middle" x="256.74" y="-189.8406" font-family="Times,serif" font-size="9.00" fill="#000000">7</text>
</g>
<!-- distance_to_enemy&#45;&gt;7 -->
<g id="edge9" class="edge">
<title>distance_to_enemy&#45;&gt;7</title>
<path fill="none" stroke="#00ff00" stroke-width=".4842" d="M204.947,-264.1431C213.725,-252.0077 230.0296,-229.467 242.0083,-212.9068"/>
<polygon fill="#00ff00" stroke="#00ff00" stroke-width=".4842" points="245.1178,-214.5798 248.1429,-204.4259 239.4461,-210.4771 245.1178,-214.5798"/>
</g>
<!-- turn -->
<g id="node5" class="node">
<title>turn</title>
<ellipse fill="#add8e6" stroke="#000000" cx="341.74" cy="-21.565" rx="21.6303" ry="21.6303"/>
<text text-anchor="middle" x="341.74" y="-18.865" font-family="Times,serif" font-size="9.00" fill="#000000">turn</text>
</g>
<!-- 4 -->
<g id="node7" class="node">
<title>4</title>
<ellipse fill="#ffffff" stroke="#000000" cx="342.74" cy="-192.5406" rx="14.4914" ry="14.4914"/>
<text text-anchor="middle" x="342.74" y="-189.8406" font-family="Times,serif" font-size="9.00" fill="#000000">4</text>
</g>
<!-- 4&#45;&gt;turn -->
<g id="edge8" class="edge">
<title>4&#45;&gt;turn</title>
<path fill="none" stroke="#ff0000" stroke-width=".1507" stroke-dasharray="1,5" d="M341.8384,-177.8977C341.1064,-165.2349 340.1333,-146.4351 339.74,-130.0348 339.1975,-107.417 339.3471,-101.751 339.74,-79.1301 339.8853,-70.7642 340.1492,-61.7175 340.4388,-53.3287"/>
<polygon fill="#ff0000" stroke="#ff0000" stroke-width=".1507" points="343.9429,-53.2773 340.8122,-43.1556 336.9477,-53.0204 343.9429,-53.2773"/>
</g>
<!-- 8 -->
<g id="node10" class="node">
<title>8</title>
<ellipse fill="#ffffff" stroke="#000000" cx="362.74" cy="-104.5825" rx="14.4914" ry="14.4914"/>
<text text-anchor="middle" x="362.74" y="-101.8825" font-family="Times,serif" font-size="9.00" fill="#000000">8</text>
</g>
<!-- 4&#45;&gt;8 -->
<g id="edge4" class="edge">
<title>4&#45;&gt;8</title>
<path fill="none" stroke="#00ff00" stroke-width=".2734" d="M346.0426,-178.0161C349.0715,-164.6953 353.6175,-144.7023 357.2017,-128.9396"/>
<polygon fill="#00ff00" stroke="#00ff00" stroke-width=".2734" points="360.6944,-129.3638 359.4989,-118.8367 353.8687,-127.8117 360.6944,-129.3638"/>
</g>
<!-- 5 -->
<g id="node8" class="node">
<title>5</title>
<ellipse fill="#ffffff" stroke="#000000" cx="392.74" cy="-272.7241" rx="14.4914" ry="14.4914"/>
<text text-anchor="middle" x="392.74" y="-270.0241" font-family="Times,serif" font-size="9.00" fill="#000000">5</text>
</g>
<!-- 7&#45;&gt;move -->
<g id="edge2" class="edge">
<title>7&#45;&gt;move</title>
<path fill="none" stroke="#00ff00" stroke-width=".179" d="M253.4374,-178.0161C251.0503,-167.5178 247.7208,-152.8751 244.6625,-139.4251"/>
<polygon fill="#00ff00" stroke="#00ff00" stroke-width=".179" points="248.027,-138.4358 242.3968,-129.4607 241.2012,-139.9879 248.027,-138.4358"/>
</g>
<!-- 8&#45;&gt;turn -->
<g id="edge7" class="edge">
<title>8&#45;&gt;turn</title>
<path fill="none" stroke="#ff0000" stroke-width=".343" d="M359.1776,-90.4997C356.5553,-80.133 352.888,-65.6354 349.5928,-52.6089"/>
<polygon fill="#ff0000" stroke="#ff0000" stroke-width=".343" points="352.9025,-51.4205 347.057,-42.5842 346.1163,-53.1372 352.9025,-51.4205"/>
</g>
<!-- 9 -->
<g id="node11" class="node">
<title>9</title>
<ellipse fill="#ffffff" stroke="#000000" cx="107.74" cy="-272.7241" rx="14.4914" ry="14.4914"/>
<text text-anchor="middle" x="107.74" y="-270.0241" font-family="Times,serif" font-size="9.00" fill="#000000">9</text>
</g>
<!-- 9&#45;&gt;attack -->
<g id="edge6" class="edge">
<title>9&#45;&gt;attack</title>
<path fill="none" stroke="#ff0000" stroke-width=".1145" d="M100.8313,-259.8413C95.7991,-250.4575 88.7476,-237.3084 82.2113,-225.12"/>
<polygon fill="#ff0000" stroke="#ff0000" stroke-width=".1145" points="85.1659,-223.2236 77.3554,-216.065 78.997,-226.5319 85.1659,-223.2236"/>
</g>
<!-- 10 -->
<g id="node12" class="node">
<title>10</title>
<ellipse fill="#ffffff" stroke="#000000" cx="342.74" cy="-272.7241" rx="17.8571" ry="17.8571"/>
<text text-anchor="middle" x="342.74" y="-270.0241" font-family="Times,serif" font-size="9.00" fill="#000000">10</text>
</g>
<!-- 10&#45;&gt;4 -->
<g id="edge3" class="edge">
<title>10&#45;&gt;4</title>
<path fill="none" stroke="#ff0000" stroke-width=".1812" d="M342.74,-254.9288C342.74,-243.7951 342.74,-229.2977 342.74,-217.0804"/>
<polygon fill="#ff0000" stroke="#ff0000" stroke-width=".1812" points="346.2401,-217.0728 342.74,-207.0729 339.2401,-217.0729 346.2401,-217.0728"/>
</g>
</g>
</svg>
