<?xml version="1.0" encoding="UTF-8" standalone="no"?>
<!DOCTYPE svg PUBLIC "-//W3C//DTD SVG 1.1//EN"
 "http://www.w3.org/Graphics/SVG/1.1/DTD/svg11.dtd">
<!-- Generated by graphviz version 2.40.1 (20161225.0304)
 -->
<!-- Title: %3 Pages: 1 -->
<svg width="406pt" height="298pt"
 viewBox="0.00 0.00 406.24 298.40" xmlns="http://www.w3.org/2000/svg" xmlns:xlink="http://www.w3.org/1999/xlink">
<g id="graph0" class="graph" transform="scale(1 1) rotate(0) translate(4 294.4018)">
<title>%3</title>
<polygon fill="#ffffff" stroke="transparent" points="-4,4 -4,-294.4018 402.2357,-294.4018 402.2357,4 -4,4"/>
<!-- angle_to_enemy -->
<g id="node1" class="node">
<title>angle_to_enemy</title>
<polygon fill="#d3d3d3" stroke="#000000" points="75.7215,-281.2241 -.2415,-281.2241 -.2415,-264.2241 75.7215,-264.2241 75.7215,-281.2241"/>
<text text-anchor="middle" x="37.74" y="-270.0241" font-family="Times,serif" font-size="9.00" fill="#000000">angle_to_enemy</text>
</g>
<!-- attack -->
<g id="node6" class="node">
<title>attack</title>
<ellipse fill="#add8e6" stroke="#000000" cx="64.74" cy="-192.5406" rx="26.5116" ry="26.5116"/>
<text text-anchor="middle" x="64.74" y="-189.8406" font-family="Times,serif" font-size="9.00" fill="#000000">attack</text>
</g>
<!-- angle_to_enemy&#45;&gt;attack -->
<g id="edge5" class="edge">
<title>angle_to_enemy&#45;&gt;attack</title>
<path fill="none" stroke="#00ff00" stroke-width=".1143" d="M40.6295,-264.1431C43.607,-255.3004 48.445,-240.9328 53.0086,-227.38"/>
<polygon fill="#00ff00" stroke="#00ff00" stroke-width=".1143" points="56.3783,-228.3402 56.2526,-217.7462 49.7443,-226.1063 56.3783,-228.3402"/>
</g>
<!-- distance_to_enemy -->
<g id="node2" class="node">
<title>distance_to_enemy</title>
<polygon fill="#d3d3d3" stroke="#000000" points="241.7189,-281.2241 155.7611,-281.2241 155.7611,-264.2241 241.7189,-264.2241 241.7189,-281.2241"/>
<text text-anchor="middle" x="198.74" y="-270.0241" font-family="Times,serif" font-size="9.00" fill="#000000">distance_to_enemy</text>
</g>
<!-- move -->
<g id="node3" class="node">
<title>move</title>
<ellipse fill="#add8e6" stroke="#000000" cx="225.74" cy="-104.5825" rx="25.4049" ry="25.4049"/>
<text text-anchor="middle" x="225.74" y="-101.8825" font-family="Times,serif" font-size="9.00" fill="#000000">move</text>
</g>
<!-- distance_to_enemy&#45;&gt;move -->
<g id="edge9" class="edge">
<title>distance_to_enemy&#45;&gt;move</title>
<path fill="none" stroke="#ff0000" stroke-width=".2816" d="M190.9794,-264.0068C182.6228,-253.9821 169.8412,-236.6333 164.74,-219.0464 158.1765,-196.4184 155.7639,-187.8187 164.74,-166.0348 171.3171,-150.0729 184.2694,-136.065 196.5532,-125.4703"/>
<polygon fill="#ff0000" stroke="#ff0000" stroke-width=".2816" points="198.9253,-128.0519 204.4552,-119.0147 194.4966,-122.6309 198.9253,-128.0519"/>
</g>
<!-- strafe -->
<g id="node4" class="node">
<title>strafe</title>
<ellipse fill="#add8e6" stroke="#000000" cx="198.74" cy="-192.5406" rx="25.3925" ry="25.3925"/>
<text text-anchor="middle" x="198.74" y="-189.8406" font-family="Times,serif" font-size="9.00" fill="#000000">strafe</text>
</g>
<!-- distance_to_enemy&#45;&gt;strafe -->
<g id="edge1" class="edge">
<title>distance_to_enemy&#45;&gt;strafe</title>
<path fill="none" stroke="#00ff00" stroke-width=".7984" d="M198.74,-264.1431C198.74,-255.5358 198.74,-241.6941 198.74,-228.4643"/>
<polygon fill="#00ff00" stroke="#00ff00" stroke-width=".7984" points="202.2401,-228.0971 198.74,-218.0972 195.2401,-228.0972 202.2401,-228.0971"/>
</g>
<!-- 7 -->
<g id="node9" class="node">
<title>7</title>
<ellipse fill="#ffffff" stroke="#000000" cx="256.74" cy="-192.5406" rx="14.4914" ry="14.4914"/>
<text text-anchor="middle" x="256.74" y="-189.8406" font-family="Times,serif" font-size="9.00" fill="#000000">7</text>
</g>
<!-- distance_to_enemy&#45;&gt;7 -->
<g id="edge8" class="edge">
<title>distance_to_enemy&#45;&gt;7</title>
<path fill="none" stroke="#00ff00" stroke-width=".4842" d="M204.947,-264.1431C213.725,-252.0077 230.0296,-229.467 242.0083,-212.9068"/>
<polygon fill="#00ff00" stroke="#00ff00" stroke-width=".4842" points="245.1178,-214.5798 248.1429,-204.4259 239.4461,-210.4771 245.1178,-214.5798"/>
</g>
<!-- turn -->
<g id="node5" class="node">
<title>turn</title>
<ellipse fill="#add8e6" stroke="#000000" cx="333.74" cy="-21.565" rx="21.6303" ry="21.6303"/>
<text text-anchor="middle" x="333.74" y="-18.865" font-family="Times,serif" font-size="9.00" fill="#000000">turn</text>
</g>
<!-- 4 -->
<g id="node7" class="node">
<title>4</title>
<ellipse fill="#ffffff" stroke="#000000" cx="333.74" cy="-192.5406" rx="14.4914" ry="14.4914"/>
<text text-anchor="middle" x="333.74" y="-189.8406" font-family="Times,serif" font-size="9.00" fill="#000000">4</text>
</g>
<!-- 8 -->
<g id="node10" class="node">
<title>8</title>
<ellipse fill="#ffffff" stroke="#000000" cx="333.74" cy="-104.5825" rx="14.4914" ry="14.4914"/>
<text text-anchor="middle" x="333.74" y="-101.8825" font-family="Times,serif" font-size="9.00" fill="#000000">8</text>
</g>
<!-- 4&#45;&gt;8 -->
<g id="edge4" class="edge">
<title>4&#45;&gt;8</title>
<path fill="none" stroke="#00ff00" stroke-width=".2734" d="M333.74,-178.0161C333.74,-164.7746 333.74,-144.9401 333.74,-129.2215"/>
<polygon fill="#00ff00" stroke="#00ff00" stroke-width=".2734" points="337.2401,-129.1285 333.74,-119.1285 330.2401,-129.1286 337.2401,-129.1285"/>
</g>
<!-- 5 -->
<g id="node8" class="node">
<title>5</title>
<ellipse fill="#ffffff" stroke="#000000" cx="383.74" cy="-272.7241" rx="14.4914" ry="14.4914"/>
<text text-anchor="middle" x="383.74" y="-270.0241" font-family="Times,serif" font-size="9.00" fill="#000000">5</text>
</g>
<!-- 7&#45;&gt;move -->
<g id="edge2" class="edge">
<title>7&#45;&gt;move</title>
<path fill="none" stroke="#00ff00" stroke-width=".179" d="M251.8962,-178.7972C248.0775,-167.9621 242.5863,-152.3814 237.6201,-138.2907"/>
<polygon fill="#00ff00" stroke="#00ff00" stroke-width=".179" points="240.918,-137.1182 234.2929,-128.8503 234.316,-139.4451 240.918,-137.1182"/>
</g>
<!-- 8&#45;&gt;turn -->
<g id="edge7" class="edge">
<title>8&#45;&gt;turn</title>
<path fill="none" stroke="#ff0000" stroke-width=".343" d="M333.74,-89.7406C333.74,-79.6114 333.74,-65.8081 333.74,-53.2705"/>
<polygon fill="#ff0000" stroke="#ff0000" stroke-width=".343" points="337.2401,-53.1449 333.74,-43.145 330.2401,-53.145 337.2401,-53.1449"/>
</g>
<!-- 9 -->
<g id="node11" class="node">
<title>9</title>
<ellipse fill="#ffffff" stroke="#000000" cx="107.74" cy="-272.7241" rx="14.4914" ry="14.4914"/>
<text text-anchor="middle" x="107.74" y="-270.0241" font-family="Times,serif" font-size="9.00" fill="#000000">9</text>
</g>
<!-- 9&#45;&gt;attack -->
<g id="edge6" class="edge">
<title>9&#45;&gt;attack</title>
<path fill="none" stroke="#ff0000" stroke-width=".1145" d="M100.8313,-259.8413C95.7991,-250.4575 88.7476,-237.3084 82.2113,-225.12"/>
<polygon fill="#ff0000" stroke="#ff0000" stroke-width=".1145" points="85.1659,-223.2236 77.3554,-216.065 78.997,-226.5319 85.1659,-223.2236"/>
</g>
<!-- 10 -->
<g id="node12" class="node">
<title>10</title>
<ellipse fill="#ffffff" stroke="#000000" cx="333.74" cy="-272.7241" rx="17.8571" ry="17.8571"/>
<text text-anchor="middle" x="333.74" y="-270.0241" font-family="Times,serif" font-size="9.00" fill="#000000">10</text>
</g>
<!-- 10&#45;&gt;4 -->
<g id="edge3" class="edge">
<title>10&#45;&gt;4</title>
<path fill="none" stroke="#ff0000" stroke-width=".1812" d="M333.74,-254.9288C333.74,-243.7951 333.74,-229.2977 333.74,-217.0804"/>
<polygon fill="#ff0000" stroke="#ff0000" stroke-width=".1812" points="337.2401,-217.0728 333.74,-207.0729 330.2401,-217.0729 337.2401,-217.0728"/>
</g>
</g>
</svg>
